<?xml version="1.0" standalone="no"?>
<!DOCTYPE svg PUBLIC "-//W3C//DTD SVG 20010904//EN" "http://www.w3.org/TR/2001/REC-SVG-20010904/DTD/svg10.dtd">
<!-- Created using Krita: https://krita.org -->
<svg xmlns="http://www.w3.org/2000/svg" 
    xmlns:xlink="http://www.w3.org/1999/xlink"
    xmlns:krita="http://krita.org/namespaces/svg/krita"
    xmlns:sodipodi="http://sodipodi.sourceforge.net/DTD/sodipodi-0.dtd"
    width="79.56pt"
    height="79.56pt"
    viewBox="0 0 79.56 79.56">
<defs>
  <radialGradient id="gradient0" gradientUnits="objectBoundingBox" cx="0" cy="0" fx="0" fy="0" r="1.4142135623731" spreadMethod="pad">
   <stop stop-color="#000000" offset="0" stop-opacity="1"/>
   <stop stop-color="#666666" offset="0.607843137254902" stop-opacity="1"/>
   <stop stop-color="#adadad" offset="0.803921568627451" stop-opacity="1"/>
   <stop stop-color="#ffffff" offset="1" stop-opacity="0.901960784313726"/>
  </radialGradient>
 </defs>
<rect id="shape0" transform="translate(-4.44089209850063e-15, -3.5527136788005e-15)" fill="url(#gradient0)" fill-rule="evenodd" width="80.9999946455366" height="79.56" rx="0.941860402855077" ry="0.874285714285714"/><path id="shape01" transform="translate(12.1992265916533, 14.008104575163)" fill="#eae4e4" fill-rule="evenodd" stroke="#7b7b7b" stroke-width="0.156" stroke-linecap="square" stroke-linejoin="bevel" d="M4.12657 25.2863C7.12461 19.0629 10.3308 15.4516 13.7453 14.4523C18.8669 12.9534 25.8396 13.2741 26.9866 13.5111C27.7513 13.6691 21.0398 9.16543 6.85206 0C2.40043 15.8304 0.129188 24.1871 0.0383388 25.0702C-0.0979357 26.3948 -0.0979357 26.4993 4.12657 25.2863Z" sodipodi:nodetypes="czzccc"/><path id="shape1" transform="translate(0.145690738212494, 25.460482402801)" fill="#eae4e4" fill-rule="evenodd" stroke="#7b7b7b" stroke-width="0.156" stroke-linecap="square" stroke-linejoin="bevel" d="M19.768 33.5777C19.494 39.5315 21.8799 44.1886 26.9255 47.5489C31.9711 50.9093 35.6215 53.0763 37.8766 54.05L0.0145462 54.3219C0.0820341 33.8582 0.0776998 19.0562 0.0015431 9.91582C-0.0746135 0.775471 2.66814 -2.04573 8.22981 1.4522C9.44003 2.05176 13.2861 12.7603 19.768 33.5777Z" sodipodi:nodetypes="czcczcc"/><path id="shape02" transform="translate(-0.337927949903161, -0.332334531092002)" fill="#ffffff" fill-rule="evenodd" stroke="#0c0c0c" stroke-width="0.156" stroke-linecap="square" stroke-linejoin="bevel" d="M40.9435 33.2789C37.0061 34.662 41.1985 32.7681 36.6124 27.5763C32.0264 22.3844 31.0919 22.1891 27.0274 20.5623C23.0424 18.9172 21.0601 15.716 21.8383 19.4674C20.9068 28.4416 18.9244 26.6063 17.4208 35.3489C15.9171 44.0915 21.9426 50.2402 25.667 49.3562C29.3913 48.4722 21.0442 53.9533 26.427 58.6941C31.8099 63.4348 32.2126 63.8213 35.7216 63.3682C39.2307 62.915 34.2199 65.2437 30.2956 64.1202C26.3713 62.9967 25.1192 62.5798 22.5807 62.8838C20.0421 63.1878 19.3792 62.707 17.5076 63.1027C15.636 63.4984 19.879 61.9864 16.2181 58.037C12.5573 54.0876 12.7535 54.684 10.8159 52.9228C8.87828 51.1616 9.39258 48.4957 4.90223 45.8745C0.411878 43.2534 0.115331 53.1933 0.0399387 46.8346C-0.0103231 42.5955 -0.013145 26.984 0.0314729 0L43.2416 0.0914813L43.848 1.85778C44.4322 2.91827 45.44 3.53824 46.8713 3.71769C49.0182 3.98687 49.9717 4.79013 50.5325 5.9662C51.0932 7.14228 47.9105 3.95414 46.8686 11.1548C45.8267 18.3555 56.7902 24.2133 59.3698 21.572C61.9493 18.9307 56.6538 25.1049 60.5527 30.385C63.1519 33.9051 64.3854 35.5564 64.2531 35.339C64.4233 35.6395 63.9122 37.2638 62.7199 40.2121C61.5275 43.1604 60.438 45.9503 59.4513 48.5817C59.185 44.8936 58.51 42.4264 57.4263 41.1801C55.8008 39.3106 52.2563 39.1691 49.7599 40.2798M49.7599 40.2798C50.4471 37.6641 46.9484 32.4021 40.9435 33.2789" sodipodi:nodetypes="czcczzzzzzzzzzzccczzzzzczczccc"/><path id="shape11" transform="matrix(0.317287436506518 0.948329416729844 -0.948329416729844 0.317287436506518 50.1439175581878 33.122235419067)" fill="#535353" fill-rule="evenodd" stroke="#ffffff" stroke-width="0.72" stroke-linecap="square" stroke-linejoin="bevel" d="M2.48802 8.42768C9.55662 7.09161 12.9555 4.68827 12.6848 1.21767C12.2786 -3.98823 12.5137 9.10636 18.3496 10.3519C24.1855 11.5975 28.4288 7.27791 23.961 11.0626C19.4933 14.8472 15.6455 18.6319 16.1264 22.1371C16.6074 25.6423 10.3547 12.9469 2.24219 20.8196C-5.87031 28.6924 11.3166 13.7693 2.48802 8.42768Z" sodipodi:nodetypes="czzzzcc"/>
</svg>
