<?xml version="1.0" standalone="no"?>
<!DOCTYPE svg PUBLIC "-//W3C//DTD SVG 20010904//EN" "http://www.w3.org/TR/2001/REC-SVG-20010904/DTD/svg10.dtd">
<!-- Created using Krita: https://krita.org -->
<svg xmlns="http://www.w3.org/2000/svg" 
    xmlns:xlink="http://www.w3.org/1999/xlink"
    xmlns:krita="http://krita.org/namespaces/svg/krita"
    xmlns:sodipodi="http://sodipodi.sourceforge.net/DTD/sodipodi-0.dtd"
    width="460.8pt"
    height="259.2pt"
    viewBox="0 0 460.8 259.2">
<defs/>
<path id="shape0" transform="translate(150.682072020819, 120.627665468908)" fill="#0c0c0c" fill-rule="evenodd" stroke="#0c0c0c" stroke-width="0.156" stroke-linecap="square" stroke-linejoin="bevel" d="M40.9435 33.2789C37.0061 34.662 41.1985 32.7681 36.6124 27.5763C32.0264 22.3844 31.0919 22.1891 27.0274 20.5623C23.0424 18.9172 21.0601 15.716 21.8383 19.4674C20.9068 28.4416 18.9244 26.6063 17.4208 35.3489C15.9171 44.0915 21.9426 50.2402 25.667 49.3562C29.3913 48.4722 21.0442 53.9533 26.427 58.6941C31.8099 63.4348 32.2126 63.8213 35.7216 63.3682C39.2307 62.915 34.2199 65.2437 30.2956 64.1202C26.3713 62.9967 25.1192 62.5798 22.5807 62.8838C20.0421 63.1878 19.3792 62.707 17.5076 63.1027C15.636 63.4984 19.879 61.9864 16.2181 58.037C12.5573 54.0876 12.7535 54.684 10.8159 52.9228C8.87828 51.1616 9.39258 48.4957 4.90223 45.8745C0.411878 43.2534 0.115331 53.1933 0.0399387 46.8346C-0.0103231 42.5955 -0.013145 26.984 0.0314729 0L43.2416 0.0914813L43.848 1.85778C44.4322 2.91827 45.44 3.53824 46.8713 3.71769C49.0182 3.98687 49.9717 4.79013 50.5325 5.9662C51.0932 7.14228 47.9105 3.95414 46.8686 11.1548C45.8267 18.3555 56.7902 24.2133 59.3698 21.572C61.9493 18.9307 56.6538 25.1049 60.5527 30.385C63.1519 33.9051 64.3854 35.5564 64.2531 35.339C64.4233 35.6395 63.9122 37.2638 62.7199 40.2121C61.5275 43.1604 60.438 45.9503 59.4513 48.5817C59.185 44.8936 58.51 42.4264 57.4263 41.1801C55.8008 39.3106 52.2563 39.1691 49.7599 40.2798M49.7599 40.2798C50.4471 37.6641 46.9484 32.4021 40.9435 33.2789" sodipodi:nodetypes="czcczzzzzzzzzzzccczzzzzczczccc"/>
</svg>
