<?xml version="1.0" standalone="no"?>
<!DOCTYPE svg PUBLIC "-//W3C//DTD SVG 20010904//EN" "http://www.w3.org/TR/2001/REC-SVG-20010904/DTD/svg10.dtd">
<!-- Created using Krita: https://krita.org -->
<svg xmlns="http://www.w3.org/2000/svg" 
    xmlns:xlink="http://www.w3.org/1999/xlink"
    xmlns:krita="http://krita.org/namespaces/svg/krita"
    xmlns:sodipodi="http://sodipodi.sourceforge.net/DTD/sodipodi-0.dtd"
    width="190.32pt"
    height="229.92pt"
    viewBox="0 0 190.32 229.92">
<defs/>
<path id="shape0" transform="translate(162.859226586842, 134.968104575163)" fill="#7b7b7b" fill-rule="evenodd" stroke="#7b7b7b" stroke-width="0.156" stroke-linecap="square" stroke-linejoin="bevel" d="M4.12657 25.2863C7.12461 19.0629 10.3308 15.4516 13.7453 14.4523C18.8669 12.9534 25.8396 13.2741 26.9866 13.5111C27.7513 13.6691 21.0398 9.16543 6.85206 0C2.40043 15.8304 0.129188 24.1871 0.0383388 25.0702C-0.0979357 26.3948 -0.0979357 26.4993 4.12657 25.2863Z" sodipodi:nodetypes="czzccc"/><path id="shape1" transform="translate(150.805690753862, 146.420480709109)" fill="#7b7b7b" fill-rule="evenodd" stroke="#7b7b7b" stroke-width="0.156" stroke-linecap="square" stroke-linejoin="bevel" d="M19.768 33.5777C19.494 39.5315 21.8799 44.1886 26.9255 47.5489C31.9711 50.9093 35.6215 53.0763 37.8766 54.05L0.0145462 54.3219C0.0820341 33.8582 0.0776998 19.0562 0.0015431 9.91582C-0.0746135 0.775473 2.66814 -2.04573 8.22981 1.4522C9.44003 2.05176 13.2861 12.7603 19.768 33.5777Z" sodipodi:nodetypes="czcczcc"/>
</svg>
